IKResults																																											
version=1																																											
nRows=18																																											
nColumns=44																																											
inDegrees=yes																																											
																																											
Units are S.I. units (second, meters, Newtons, ...)																																											
Angles are in degrees.																																											
																																											
endheader																																											
time	ground_spine_rot_x	ground_spine_rot_y	ground_spine_rot_z	ground_spine_tx	ground_spine_ty	ground_spine_tz	clav_prot	clav_elev	scapula_abduction	scapula_elevation	scapula_upward_rot	scapula_winging	plane_elv	shoulder_elv	axial_rot	elbow_flexion	pro_sup	clav_prot_l	clav_elev_l	pitch2	roll2	yaw2	aux7jnt_r3	aux7jnt_r1	aux7jnt_r2	aux6jnt_r3	aux6jnt_r1	aux6jnt_r2	aux5jnt_r3	aux5jnt_r1	aux5jnt_r2	aux4jnt_r3	aux4jnt_r1	aux4jnt_r2	aux3jnt_r3	aux3jnt_r1	aux3jnt_r2	pitch1	roll1	yaw1	aux1jnt_r3	aux1jnt_r1	aux1jnt_r2
1.3	0.54326961	-3.31363744	-1.75950795	0.06249012	1.0915561	0.87020189	-28.72423692	5.68644034	-7.57554206	-9.14161532	9.99981215	21.36342146	-55.41410742	27.94478046	52.16645993	0	34.32	30.42326055	-1.1607173	0.09365938	-0.03823258	0.00569727	1.0034966	-0.30010724	0.06136878	1.18058134	-0.34391905	0.07148806	1.18058134	-0.47316184	0.07148806	0.88543601	-0.47316184	0.07148806	0.59029067	-0.42935128	0.03068439	-0.2087056	0.00485282	0.00769846	-6.64861679	0.13902299	0.04896098
1.31	0.47988931	-3.34915829	-1.67859796	0.06314565	1.09193748	0.87063236	-28.95598251	6.57772948	-8.39685847	-8.29606721	9.99956388	21.44882778	-53.95110108	27.00617406	50.21943416	0	34.32	30.42326055	-1.1607173	0.09243537	-0.03702051	0.0066447	0.99038218	-0.29059307	0.07157411	1.16515265	-0.33301594	0.08337618	1.16515265	-0.4581614	0.08337618	0.87386449	-0.4581614	0.08337618	0.58257633	-0.41573974	0.03578706	-0.20838141	0.00634016	0.00898594	-6.6382895	0.18163224	0.0571492
1.32	0.44405638	-3.37635296	-1.56166413	0.06396955	1.09242147	0.87089189	-29.1949289	7.35536785	-9.19325439	-7.5588167	9.99991007	21.56039578	-52.69492918	26.11861799	48.8408153	0	34.32	30.42326055	-1.1607173	0.08964846	-0.03824445	0.00726362	0.9605223	-0.30020041	0.07824089	1.13002346	-0.34402583	0.09114226	1.13002346	-0.47330875	0.09114226	0.8475176	-0.47330875	0.09114226	0.56501173	-0.42948458	0.03912044	-0.20714474	0.00697868	0.00950453	-6.59889365	0.19992452	0.06044732
1.33	0.36931074	-3.40797804	-1.43296154	0.06479995	1.0930524	0.87138062	-29.37568341	8.17287138	-9.89381974	-6.77711252	9.99963062	21.64402023	-51.46601202	25.29074329	47.73206193	0	34.32	30.42326055	-1.1607173	0.08731341	-0.03743677	0.00794547	0.9355038	-0.2938605	0.08558549	1.10059001	-0.33676038	0.09969794	1.10059001	-0.46331297	0.09969794	0.82544251	-0.46331297	0.09969794	0.55029501	-0.42041433	0.04279275	-0.20733084	0.00701984	0.01048713	-6.60482203	0.20110366	0.06669648
1.34	0.36930286	-3.41254991	-1.31491808	0.0655825	1.09370519	0.87130189	-29.45018235	9.04972732	-10.40154929	-5.93023091	10.00022212	21.67050274	-50.10047138	24.72734838	46.44845599	0	34.32	30.42326055	-1.1607173	0.08606457	-0.04067657	0.008629	0.92212341	-0.31929133	0.09294818	1.08484842	-0.36590378	0.10827467	1.08484842	-0.5034083	0.10827467	0.81363631	-0.5034083	0.10827467	0.54242421	-0.45679719	0.04647409	-0.20868877	0.00921314	0.01088427	-6.64808074	0.26393715	0.06922225
1.35	0.35002376	-3.38645359	-1.20644447	0.06636272	1.09432035	0.87141135	-29.58321956	9.91162965	-11.02854713	-5.09869117	10.0003078	21.75183702	-48.94051727	24.08740464	45.55355197	0	34.32	30.42326055	-1.1607173	0.08567821	-0.04394733	0.00899466	0.91798382	-0.34496526	0.09688692	1.07997832	-0.39532577	0.11286289	1.07997832	-0.5438869	0.11286289	0.80998374	-0.5438869	0.11286289	0.53998916	-0.49352783	0.04844346	-0.20995042	0.01296167	0.01085627	-6.68827242	0.37132457	0.06904417
1.36	0.32542953	-3.31584345	-1.09801522	0.06710111	1.09501128	0.87145618	-29.9776931	10.7664352	-12.21792709	-4.28278861	10.00031045	22.01873438	-46.79129009	23.24610263	47.07028271	0	34.32	30.42326055	-1.1607173	0.08583718	-0.04031004	0.00773588	0.91968705	-0.31641423	0.08332782	1.08198212	-0.36260666	0.09706799	1.08198212	-0.49887214	0.09706799	0.81148659	-0.49887214	0.09706799	0.54099106	-0.45268104	0.04166391	-0.21276912	0.00655969	0.01076673	-6.77806631	0.18792141	0.06847473
1.37	0.38815077	-3.1722483	-0.9839648	0.06783798	1.09563385	0.87089425	-30.2408887	11.86440948	-13.96837444	-2.95295044	9.27969878	22.50674326	-41.144204	22.6389653	39.90662317	0	34.32	30.42326055	-1.1607173	0.0851378	-0.04478249	0.00520746	0.91219361	-0.35152081	0.05609271	1.07316632	-0.40283835	0.065342	1.07316632	-0.55422267	0.065342	0.80487474	-0.55422267	0.065342	0.53658316	-0.5029066	0.02804635	-0.21474841	0.00761756	0.01190824	-6.84111918	0.21822689	0.07573457
1.38	0.35702811	-3.19138333	-0.8312968	0.06874906	1.09649255	0.87104897	-30.21468531	12.46156786	-13.98070207	-2.43102012	9.46467493	22.45331432	-41.18107455	22.6450711	39.98334309	0	34.32	30.42326055	-1.1607173	0.08241332	-0.04401834	0.00605601	0.88300269	-0.34552263	0.06523299	1.03882414	-0.39596451	0.07598945	1.03882414	-0.54476568	0.07598945	0.77911811	-0.54476568	0.07598945	0.51941207	-0.49432525	0.0326165	-0.21611137	0.00771823	0.01304218	-6.88453825	0.22111105	0.08294625
1.39	0.44927628	-3.11116086	-0.70845336	0.06949736	1.09718459	0.87042142	-30.37128329	13.78278596	-15.19070538	-1.01794959	9.17427333	22.7803606	-36.53207203	21.69648728	36.53079605	0	34.32	30.42326055	-1.1607173	0.07870981	-0.04960939	0.00623747	0.84332207	-0.38940968	0.06718752	0.99214119	-0.44625851	0.07826627	0.99214119	-0.61395988	0.07826627	0.74410589	-0.61395988	0.07826627	0.49607059	-0.55711267	0.03359376	-0.21518382	0.00834572	0.01146437	-6.8549898	0.23908714	0.0729116
1.4	0.49703937	-3.05466827	-0.57485636	0.07035422	1.09801771	0.86995253	-31.32405999	14.4739109	-13.26483759	-1.90209809	13.31363011	21.74305756	-51.80323907	20.42843267	53.64688074	0	34.32	30.42326055	-1.1607173	0.07757092	-0.05377889	0.00189497	0.83111967	-0.42213817	0.02041185	0.97778545	-0.48376494	0.02377763	0.97778545	-0.66556099	0.02377763	0.73333909	-0.66556099	0.02377763	0.48889273	-0.60393599	0.01020593	-0.2176529	0.01083918	0.01666911	-6.93364613	0.31051958	0.10601291
1.41	0.51021171	-3.08000599	-0.4436126	0.07094781	1.09896073	0.86983221	-30.97236392	15.4494251	-15.49018489	-0.03774429	10.91485622	22.6165992	-38.8808218	20.26827087	45.05173653	0	34.32	30.42326055	-1.1607173	0.05961613	-0.0527182	0.00484081	0.6387463	-0.41381227	0.05214334	0.75146439	-0.47422357	0.06074141	0.75146439	-0.65243403	0.06074141	0.56359829	-0.65243403	0.06074141	0.3757322	-0.59202447	0.02607167	-0.19743333	0.00688702	0.01394464	-6.28952257	0.1972986	0.08868574
1.42	0.58288856	-3.08631918	-0.35763671	0.07151149	1.09982415	0.86925265	-31.08041647	16.36946019	-15.54217302	0.65959148	11.48298484	22.5592917	-39.25645127	19.70320902	44.96594261	0	34.32	30.42326055	-1.1607173	0.07158541	-0.05682081	0.00609537	0.76698902	-0.4460158	0.06565696	0.90233781	-0.5111284	0.07648333	0.90233781	-0.70320749	0.07648333	0.67675335	-0.70320749	0.07648333	0.4511689	-0.63809676	0.03282848	-0.21806045	0.00806092	0.01501804	-6.94662918	0.23092838	0.0955124
1.43	0.63005081	-3.02400202	-0.27728327	0.07191955	1.10056567	0.86876734	-31.92435356	17.00166724	-14.427131	0.1410535	14.48486004	21.86256454	-50.59913219	18.75847392	53.89115315	0	34.32	30.42326055	-1.1607173	0.07194971	-0.06167092	0.00224457	0.77089223	-0.48408683	0.02417758	0.90692981	-0.55475731	0.02816429	0.90692981	-0.7632319	0.02816429	0.68019736	-0.7632319	0.02816429	0.45346491	-0.69256344	0.01208879	-0.22103879	0.01249964	0.02142639	-7.04150851	0.35808837	0.1362685
1.44	0.68088425	-2.98638463	-0.15773177	0.07252363	1.10127259	0.86833271	-32.07518606	17.8503239	-15.23689318	1.00227561	14.42838459	22.08837165	-47.65263415	18.19804271	52.56357818	0	34.32	30.42326055	-1.1607173	0.0683322	-0.06574137	0.00367066	0.73213306	-0.51603785	0.03953889	0.8613309	-0.59137278	0.04605857	0.8613309	-0.81360724	0.04605857	0.64599817	-0.81360724	0.04605857	0.43066545	-0.73827447	0.01976944	-0.22072379	0.01492197	0.02174941	-7.0314738	0.42748306	0.13832287
1.45	0.72518708	-2.97869665	-0.06446411	0.07293226	1.10204723	0.86799762	-32.22931496	18.52456526	-15.2183247	1.44898268	15.01541004	22.01866006	-48.90609408	17.84782659	52.38667698	0	34.32	30.42326055	-1.1607173	0.06585862	-0.06882786	0.0054162	0.70563038	-0.54026532	0.05834122	0.83015135	-0.61913715	0.06796127	0.83015135	-0.8518053	0.06796127	0.62261352	-0.8518053	0.06796127	0.41507568	-0.77293573	0.02917061	-0.22067737	0.0152999	0.02266314	-7.02999502	0.43830989	0.14413402
1.46	0.77312434	-2.93688409	0.04447474	0.07348707	1.10279268	0.86759821	-32.24590005	19.16723468	-15.88465257	2.19401787	14.74493717	22.25274441	-45.61720721	17.69995937	50.75178385	0	34.32	30.42326055	-1.1607173	0.06242678	-0.07351385	0.00737294	0.66886049	-0.57704803	0.07941838	0.78689277	-0.66128966	0.09251391	0.78689277	-0.90979848	0.09251391	0.59016958	-0.90979848	0.09251391	0.39344638	-0.82555927	0.03970919	-0.22058563	0.01862586	0.0230242	-7.0270725	0.53359148	0.14643031
1.47	0.79620927	-2.92028842	0.18273995	0.07401227	1.10350377	0.86740821	-32.21146775	19.63056647	-15.99057615	2.64877104	14.76747342	22.30156975	-44.33139522	17.52535209	49.93165204	0	34.32	30.42326055	-1.1607173	0.04133651	-0.06967885	0.00715454	0.44289257	-0.5469452	0.07706585	0.5210488	-0.6267922	0.08977346	0.5210488	-0.86233707	0.08977346	0.3907866	-0.86233707	0.08977346	0.2605244	-0.78249236	0.03853292	-0.19822696	0.00961229	0.02266543	-6.31480476	0.27537184	0.14414858
